<svg width="124" height="125" viewBox="0 0 124 125" fill="none" xmlns="http://www.w3.org/2000/svg">
<path d="M108.5 52.1668H15.5M108.5 59.9168V45.9668C108.5 37.286 108.5 32.9456 106.811 29.63C105.325 26.7135 102.953 24.3423 100.037 22.8562C96.7212 21.1668 92.3808 21.1668 83.7 21.1668H40.3C31.6192 21.1668 27.2788 21.1668 23.9631 22.8562C21.0466 24.3423 18.6754 26.7135 17.1894 29.63C15.5 32.9456 15.5 37.286 15.5 45.9668V89.3668C15.5 98.0476 15.5 102.388 17.1894 105.704C18.6754 108.62 21.0466 110.991 23.9631 112.477C27.2788 114.167 31.6192 114.167 40.3 114.167H64.5833M82.6667 10.8335V31.5002M41.3333 10.8335V31.5002" stroke="#5240C0" stroke-width="5" stroke-linecap="round" stroke-linejoin="round"/>
<path d="M92.9997 114.167C92.9997 102.759 102.258 93.5002 113.666 93.5002C102.258 93.5002 92.9997 84.2415 92.9997 72.8335C92.9997 84.2415 83.741 93.5002 72.333 93.5002C83.741 93.5002 92.9997 102.759 92.9997 114.167Z" stroke="#5240C0" stroke-width="5" stroke-linecap="round" stroke-linejoin="round"/>
</svg>
