<svg width="124" height="125" viewBox="0 0 124 125" fill="none" xmlns="http://www.w3.org/2000/svg">
<path d="M28.4471 74.774C18.9126 78.9801 12.9971 84.8413 12.9971 91.3243C12.9971 104.123 36.0544 114.499 64.4971 114.499C92.9397 114.499 115.997 104.123 115.997 91.3243C115.997 84.8413 110.082 78.9801 100.547 74.774M95.3971 42.3993C95.3971 63.3274 72.2221 73.2993 64.4971 88.7493C56.7721 73.2993 33.5971 63.3274 33.5971 42.3993C33.5971 25.3337 47.4315 11.4993 64.4971 11.4993C81.5627 11.4993 95.3971 25.3337 95.3971 42.3993ZM69.6471 42.3993C69.6471 45.2435 67.3413 47.5493 64.4971 47.5493C61.6528 47.5493 59.3471 45.2435 59.3471 42.3993C59.3471 39.555 61.6528 37.2493 64.4971 37.2493C67.3413 37.2493 69.6471 39.555 69.6471 42.3993Z" stroke="#5240C0" stroke-width="5" stroke-linecap="round" stroke-linejoin="round"/>
</svg>
