<svg width="124" height="125" viewBox="0 0 124 125" fill="none" xmlns="http://www.w3.org/2000/svg">
<path d="M82.6673 18.4168C90.3229 22.2212 95.584 30.1212 95.584 39.25C95.584 48.3788 90.3229 56.2788 82.6673 60.0832M93.0006 87.1263C100.81 90.6601 107.842 96.4191 113.667 103.833M10.334 103.833C20.3909 91.0333 34.0447 83.1667 49.084 83.1667C64.1232 83.1667 77.7771 91.0333 87.834 103.833M72.334 39.25C72.334 52.0906 61.9246 62.5 49.084 62.5C36.2434 62.5 25.834 52.0906 25.834 39.25C25.834 26.4094 36.2434 16 49.084 16C61.9246 16 72.334 26.4094 72.334 39.25Z" stroke="#5240C0" stroke-width="5" stroke-linecap="round" stroke-linejoin="round"/>
</svg>
