<svg width="56" height="56" viewBox="0 0 56 56" fill="none" xmlns="http://www.w3.org/2000/svg">
<rect width="56" height="56" rx="28" fill="white"/>
<path d="M19.0682 40V36.9545L27.1477 29.0341C27.9205 28.2538 28.5644 27.5606 29.0795 26.9545C29.5947 26.3485 29.9811 25.7614 30.2386 25.1932C30.4962 24.625 30.625 24.0189 30.625 23.375C30.625 22.6402 30.4583 22.0114 30.125 21.4886C29.7917 20.9583 29.3333 20.5492 28.75 20.2614C28.1667 19.9735 27.5038 19.8295 26.7614 19.8295C25.9962 19.8295 25.3258 19.9886 24.75 20.3068C24.1742 20.6174 23.7273 21.0606 23.4091 21.6364C23.0985 22.2121 22.9432 22.8977 22.9432 23.6932H18.9318C18.9318 22.2159 19.2689 20.9318 19.9432 19.8409C20.6174 18.75 21.5455 17.9053 22.7273 17.3068C23.9167 16.7083 25.2803 16.4091 26.8182 16.4091C28.3788 16.4091 29.75 16.7008 30.9318 17.2841C32.1136 17.8674 33.0303 18.6667 33.6818 19.6818C34.3409 20.697 34.6705 21.8561 34.6705 23.1591C34.6705 24.0303 34.5038 24.8864 34.1705 25.7273C33.8371 26.5682 33.25 27.5 32.4091 28.5227C31.5758 29.5455 30.4053 30.7841 28.8977 32.2386L24.8864 36.3182V36.4773H35.0227V40H19.0682Z" fill="#5240C0"/>
</svg>
