<svg width="56" height="56" viewBox="0 0 56 56" fill="none" xmlns="http://www.w3.org/2000/svg">
<rect width="56" height="56" rx="28" fill="white"/>
<path d="M21.125 38H19.25C17.8693 38 16.75 36.8807 16.75 35.5V18C16.75 16.6193 17.8693 15.5 19.25 15.5H36.75C38.1307 15.5 39.25 16.6193 39.25 18V35.5C39.25 36.8807 38.1307 38 36.75 38H34.875M28 36.75C30.0711 36.75 31.75 35.0711 31.75 33C31.75 30.9289 30.0711 29.25 28 29.25C25.9289 29.25 24.25 30.9289 24.25 33C24.25 35.0711 25.9289 36.75 28 36.75ZM28 36.75L28.0268 36.7497L24.0358 40.7407L20.5003 37.2052L24.2746 33.4309M28 36.75L31.991 40.7407L35.5266 37.2052L31.7523 33.4309M24.25 20.5H31.75M21.75 24.875H34.25" stroke="#5240C0" stroke-width="3" stroke-linecap="round" stroke-linejoin="round"/>
</svg>
