<svg width="56" height="56" viewBox="0 0 56 56" fill="none" xmlns="http://www.w3.org/2000/svg">
<rect width="56" height="56" rx="28" fill="white"/>
<path d="M27.4205 39.8182C25.7841 39.8182 24.3295 39.5379 23.0568 38.9773C21.7917 38.4167 20.7917 37.6364 20.0568 36.6364C19.322 35.6364 18.9318 34.4811 18.8864 33.1705H23.1591C23.197 33.7992 23.4053 34.3485 23.7841 34.8182C24.1629 35.2803 24.6667 35.6402 25.2955 35.8977C25.9242 36.1553 26.6288 36.2841 27.4091 36.2841C28.2424 36.2841 28.9811 36.1402 29.625 35.8523C30.2689 35.5568 30.7727 35.1477 31.1364 34.625C31.5 34.1023 31.678 33.5 31.6705 32.8182C31.678 32.1136 31.4962 31.4924 31.125 30.9545C30.7538 30.4167 30.2159 29.9962 29.5114 29.6932C28.8144 29.3902 27.9735 29.2386 26.9886 29.2386H24.9318V25.9886H26.9886C27.7992 25.9886 28.5076 25.8485 29.1136 25.5682C29.7273 25.2879 30.2083 24.8939 30.5568 24.3864C30.9053 23.8712 31.0758 23.2765 31.0682 22.6023C31.0758 21.9432 30.928 21.3712 30.625 20.8864C30.3295 20.3939 29.9091 20.0114 29.3636 19.7386C28.8258 19.4659 28.1932 19.3295 27.4659 19.3295C26.7538 19.3295 26.0947 19.4583 25.4886 19.7159C24.8826 19.9735 24.3939 20.3409 24.0227 20.8182C23.6515 21.2879 23.4545 21.8485 23.4318 22.5H19.375C19.4053 21.197 19.7803 20.053 20.5 19.0682C21.2273 18.0758 22.197 17.303 23.4091 16.75C24.6212 16.1894 25.9811 15.9091 27.4886 15.9091C29.0417 15.9091 30.3902 16.2008 31.5341 16.7841C32.6856 17.3598 33.5758 18.1364 34.2045 19.1136C34.8333 20.0909 35.1477 21.1705 35.1477 22.3523C35.1553 23.6629 34.7689 24.7614 33.9886 25.6477C33.2159 26.5341 32.2008 27.1136 30.9432 27.3864V27.5682C32.5795 27.7955 33.8333 28.4015 34.7045 29.3864C35.5833 30.3636 36.0189 31.5795 36.0114 33.0341C36.0114 34.3371 35.6402 35.5038 34.8977 36.5341C34.1629 37.5568 33.1477 38.3598 31.8523 38.9432C30.5644 39.5265 29.0871 39.8182 27.4205 39.8182Z" fill="#5240C0"/>
</svg>
