<svg width="56" height="56" viewBox="0 0 56 56" fill="none" xmlns="http://www.w3.org/2000/svg">
<rect width="56" height="56" rx="28" fill="white"/>
<g clip-path="url(#clip0_85_1853)">
<path d="M35.0007 32.3333C37.0824 32.3333 38.7699 29.1807 38.7699 25.2917C38.7699 21.4027 37.0824 18.25 35.0007 18.25M35.0007 32.3333C32.919 32.3333 31.2314 29.1807 31.2314 25.2917C31.2314 21.4027 32.919 18.25 35.0007 18.25M35.0007 32.3333L20.9399 29.7616C19.941 29.5789 19.4416 29.4876 19.0378 29.288C18.2163 28.8821 17.6044 28.1446 17.3544 27.2589C17.2314 26.8236 17.2314 26.3129 17.2314 25.2917C17.2314 24.2704 17.2314 23.7598 17.3544 23.3244C17.6044 22.4387 18.2163 21.7013 19.0378 21.2953C19.4416 21.0958 19.941 21.0044 20.9399 20.8217L35.0007 18.25M20.4622 30.1667L20.8864 36.1402C20.9266 36.7074 20.9468 36.9911 21.0695 37.206C21.1775 37.3953 21.3398 37.5473 21.5351 37.6422C21.757 37.75 22.0397 37.75 22.6051 37.75H24.5246C25.1709 37.75 25.494 37.75 25.7332 37.6203C25.9434 37.5064 26.11 37.3255 26.2068 37.1059C26.3169 36.8561 26.2922 36.532 26.2426 35.8837L25.8468 30.7083" stroke="#5240C0" stroke-width="3" stroke-linecap="round" stroke-linejoin="round"/>
</g>
<defs>
<clipPath id="clip0_85_1853">
<rect width="25.8462" height="26" fill="white" transform="translate(15.0771 15)"/>
</clipPath>
</defs>
</svg>
