<svg width="11" height="9" viewBox="0 0 11 9" fill="none" xmlns="http://www.w3.org/2000/svg">
<path d="M10.2285 0.0550432C10.1275 0.107746 9.64813 0.63238 6.7893 3.81612L3.46832 7.51731L2.16788 6.07038C1.45209 5.27504 0.833037 4.60427 0.792197 4.58032C0.686871 4.51803 0.424632 4.51803 0.312858 4.58032C0.196785 4.645 0.106506 4.7528 0.044171 4.90372C-0.020314 5.05944 -0.0138655 5.2439 0.061367 5.41159C0.128001 5.56012 3.08571 8.85645 3.21898 8.93071C3.27272 8.95946 3.36945 8.9906 3.43823 8.9954C3.53926 9.00737 3.5801 8.99779 3.68542 8.94509C3.79935 8.88759 4.14542 8.51149 7.35247 4.93487C10.5617 1.36064 10.8991 0.974951 10.9507 0.847984C10.998 0.7306 11.0066 0.685083 10.9959 0.570095C10.9701 0.253877 10.7616 0.0239 10.4757 0.00233936C10.3704 -0.00484657 10.3252 0.00233936 10.2285 0.0550432Z" fill="black"/>
</svg>
