<svg width="340" height="190" viewBox="0 0 340 190" fill="none" xmlns="http://www.w3.org/2000/svg">
<path d="M6.4 92.8H33.4C33.8 77.2 41.4 68.8 54.6 68.8C66.2 68.8 74 75.8 74 86.4C74 98.2 66 104 49.6 104C47.8 104 47 104 44.8 103.8V123.8C47.6 123.6 48.8 123.6 51.8 123.6C65.2 123.6 77.2 128.8 77.2 144.4C77.2 157 68 165.6 54 165.6C38.8 165.6 30.4 156 30.2 138.8H2.8V140.8C2.8 170.8 22.8 189.6 54.6 189.6C85.2 189.6 106.6 170.8 106.6 144.2C106.6 127.8 97.4 115.8 81.8 112C93.8 108.8 101.4 98 101.4 84.4C101.4 61.6 82.4 46 54.8 46C25.2 46 7.4 64 6.4 92.8Z" fill="white"/>
<path d="M151.6 78.52H131.76V107H138V83.84H151.6V78.52ZM167.609 77.84C159.089 77.84 153.489 83.76 153.489 92.8C153.489 101.72 159.129 107.68 167.569 107.68C175.929 107.68 181.569 101.68 181.569 92.8C181.569 83.88 175.929 77.84 167.609 77.84ZM167.529 82.96C172.289 82.96 175.249 86.68 175.249 92.68C175.249 98.76 172.329 102.52 167.609 102.52C162.769 102.48 159.809 98.8 159.809 92.68C159.809 86.76 162.809 82.96 167.529 82.96ZM212.527 114.32V101.68H209.367V78.52H189.087V82.84C189.087 91.24 187.887 97.2 184.527 101.68H182.367V114.32H188.407V107H206.487V114.32H212.527ZM203.127 101.68H191.487C194.007 97.08 195.287 91.88 195.287 84.08V83.6H203.127V101.68ZM230.1 78.48H223.66L212.82 107H219.22L221.54 100.64H232.14L234.38 107H240.94L230.1 78.48ZM230.62 96.08H223.06L226.86 85.48L230.62 96.08ZM151.6 128.52H131.76V157H138V133.84H151.6V128.52ZM164.436 128.48H157.996L147.156 157H153.556L155.876 150.64H166.476L168.716 157H175.276L164.436 128.48ZM164.956 146.08H157.396L161.196 135.48L164.956 146.08ZM177.698 128.52V157H183.898V146.76H190.298C196.018 146.76 200.418 143.88 200.418 137.68C200.418 131.4 196.138 128.52 189.978 128.52H177.698ZM183.898 133.64H189.498C192.258 133.64 194.338 134.72 194.338 137.76C194.338 140.92 192.258 141.84 189.458 141.84H183.898V133.64ZM215.529 128.48H209.089L198.249 157H204.649L206.969 150.64H217.569L219.809 157H226.369L215.529 128.48ZM216.049 146.08H208.489L212.289 135.48L216.049 146.08ZM252.872 128.52H246.632V139.24H234.992V128.52H228.752V157H234.992V144.72H246.632V157H252.872V128.52ZM279.561 128.52H256.161V133.84H264.721V157H271.001V133.84H279.561V128.52ZM306.974 128.52H299.934L289.214 148.24H289.094V128.52H282.854V157H289.894L300.614 137.24H300.734V157H306.974V128.52ZM336.622 128.52H329.582L318.862 148.24H318.742V128.52H312.502V157H319.542L330.262 137.24H330.382V157H336.622V128.52Z" fill="white"/>
</svg>
