<svg width="48" height="48" viewBox="0 0 48 48" fill="none" xmlns="http://www.w3.org/2000/svg">
<rect width="48" height="48" rx="24" fill="#313538"/>
<path d="M28.1667 16.9167H19.8333C17.3333 16.9167 15.6667 18.1667 15.6667 21.0834V26.9167C15.6667 29.8334 17.3333 31.0834 19.8333 31.0834H28.1667C30.6667 31.0834 32.3333 29.8334 32.3333 26.9167V21.0834C32.3333 18.1667 30.6667 16.9167 28.1667 16.9167ZM28.5583 21.9917L25.95 24.075C25.4 24.5167 24.7 24.7334 24 24.7334C23.3 24.7334 22.5917 24.5167 22.05 24.075L19.4417 21.9917C19.175 21.775 19.1333 21.375 19.3417 21.1084C19.5583 20.8417 19.95 20.7917 20.2167 21.0084L22.825 23.0917C23.4583 23.6 24.5333 23.6 25.1667 23.0917L27.775 21.0084C28.0417 20.7917 28.4417 20.8334 28.65 21.1084C28.8667 21.375 28.825 21.775 28.5583 21.9917Z" fill="white"/>
</svg>
