<svg width="35" height="35" viewBox="0 0 35 35" fill="none" xmlns="http://www.w3.org/2000/svg">
<path fill-rule="evenodd" clip-rule="evenodd" d="M15.55 17.4707C15.35 17.6707 15.1358 17.8479 14.9106 18.0023C15.234 18.4276 15.5792 18.8229 15.9469 19.1905C16.3145 19.5582 16.7098 19.9033 17.1351 20.2268C17.2895 20.0016 17.4667 19.7874 17.6667 19.5874C19.4202 17.8339 22.2632 17.8339 24.0168 19.5874C25.0553 20.6259 25.5268 22.055 25.3352 23.4052C25.3192 23.4023 25.3512 23.408 25.3352 23.4052L24.815 26.3531C20.1411 25.5282 16.5045 23.9815 13.8302 21.3072C11.1559 18.6329 9.60914 14.9963 8.78433 10.3224L11.7322 9.80218C11.7294 9.78618 11.7351 9.81822 11.7322 9.80218C13.0824 9.61061 14.5115 10.0821 15.55 11.1206C17.3035 12.8742 17.3035 15.7172 15.55 17.4707ZM12.4191 12.7996C12.6954 13.7484 13.0137 14.6154 13.3762 15.4082C13.3956 15.3908 13.4146 15.3727 13.4333 15.354C14.0178 14.7695 14.0178 13.8218 13.4333 13.2373C13.1523 12.9563 12.7873 12.8104 12.4191 12.7996ZM22.3378 22.7183C22.327 22.3501 22.1811 21.9851 21.9001 21.7041C21.3156 21.1196 20.3679 21.1196 19.7834 21.7041C19.7647 21.7227 19.7466 21.7418 19.7292 21.7612C20.522 22.1237 21.389 22.442 22.3378 22.7183Z" fill="white"/>
</svg>
