<svg width="48" height="48" viewBox="0 0 48 48" fill="none" xmlns="http://www.w3.org/2000/svg">
<rect width="48" height="48" rx="24" fill="#313538"/>
<path d="M28.1667 15.6667H19.8333C17.5333 15.6667 15.6667 17.525 15.6667 19.8167V24.8V25.6334C15.6667 27.925 17.5333 29.7834 19.8333 29.7834H21.0833C21.3083 29.7834 21.6083 29.9334 21.75 30.1167L23 31.775C23.55 32.5084 24.45 32.5084 25 31.775L26.25 30.1167C26.4083 29.9084 26.6583 29.7834 26.9167 29.7834H28.1667C30.4667 29.7834 32.3333 27.925 32.3333 25.6334V19.8167C32.3333 17.525 30.4667 15.6667 28.1667 15.6667ZM20.6667 24C20.2 24 19.8333 23.625 19.8333 23.1667C19.8333 22.7084 20.2083 22.3334 20.6667 22.3334C21.125 22.3334 21.5 22.7084 21.5 23.1667C21.5 23.625 21.1333 24 20.6667 24ZM24 24C23.5333 24 23.1667 23.625 23.1667 23.1667C23.1667 22.7084 23.5417 22.3334 24 22.3334C24.4583 22.3334 24.8333 22.7084 24.8333 23.1667C24.8333 23.625 24.4667 24 24 24ZM27.3333 24C26.8667 24 26.5 23.625 26.5 23.1667C26.5 22.7084 26.875 22.3334 27.3333 22.3334C27.7917 22.3334 28.1667 22.7084 28.1667 23.1667C28.1667 23.625 27.8 24 27.3333 24Z" fill="white"/>
</svg>
