<svg width="32" height="32" viewBox="0 0 32 32" fill="none" xmlns="http://www.w3.org/2000/svg">
<path fill-rule="evenodd" clip-rule="evenodd" d="M16 6.66663C10.8453 6.66663 6.66666 10.8453 6.66666 16C6.66666 19.8823 9.03703 23.2109 12.4095 24.6177C13.485 25.0663 14.6625 25.3195 15.8975 25.3328C15.9316 25.3331 15.9658 25.3333 16 25.3333C16.0342 25.3333 16.0683 25.3331 16.1024 25.3327C17.3375 25.3195 18.515 25.0663 19.5905 24.6177C22.963 23.2109 25.3333 19.8823 25.3333 16C25.3333 10.8453 21.1546 6.66663 16 6.66663ZM17.2452 17.3333C17.0696 18.6514 16.6372 19.8884 16 20.9922C15.3628 19.8884 14.9304 18.6514 14.7548 17.3333H17.2452ZM19.9307 17.3333C19.7457 19.1013 19.197 20.7611 18.3608 22.2365C20.4744 21.436 22.0748 19.592 22.5333 17.3333H19.9307ZM22.5333 14.6666H19.9307C19.7457 12.8986 19.197 11.2388 18.3608 9.76337C20.4743 10.5639 22.0748 12.4079 22.5333 14.6666ZM17.2452 14.6666H14.7548C14.9304 13.3485 15.3628 12.1116 16 11.0077C16.6372 12.1116 17.0696 13.3485 17.2452 14.6666ZM12.0693 14.6666C12.2543 12.8986 12.803 11.2388 13.6392 9.76337C11.5256 10.5639 9.92518 12.4079 9.46668 14.6666H12.0693ZM9.46668 17.3333C9.92518 19.592 11.5256 21.436 13.6392 22.2365C12.8029 20.7611 12.2543 19.1013 12.0693 17.3333H9.46668Z" fill="#CBCECF"/>
</svg>
